<svg width="366" height="99" viewBox="0 0 366 99" fill="none" xmlns="http://www.w3.org/2000/svg">
<g clip-path="url(#clip0)">
<rect width="366" height="99" fill="white"/>
<path d="M21.68 42.816C20.672 42.816 19.64 43.08 18.584 43.608C17.576 44.088 16.64 44.88 15.776 45.984C14.96 47.04 14.288 48.432 13.76 50.16C13.28 51.84 13.04 53.904 13.04 56.352C13.04 60.528 13.952 63.72 15.776 65.928C17.648 68.136 20.096 69.24 23.12 69.24C24.848 69.24 26.36 68.88 27.656 68.16C28.952 67.392 30.128 66.408 31.184 65.208L33.704 67.44C32.312 70.368 30.368 72.552 27.872 73.992C25.376 75.384 22.4 76.08 18.944 76.08C16.496 76.08 14.168 75.696 11.96 74.928C9.8 74.16 7.904 73.008 6.272 71.472C4.688 69.888 3.416 67.968 2.456 65.712C1.496 63.408 1.016 60.744 1.016 57.72C1.016 54.792 1.52 52.176 2.528 49.872C3.536 47.52 4.928 45.552 6.704 43.968C8.48 42.384 10.544 41.184 12.896 40.368C15.248 39.504 17.768 39.072 20.456 39.072C22.376 39.072 24.128 39.36 25.712 39.936C27.296 40.464 28.664 41.208 29.816 42.168C31.016 43.128 31.952 44.256 32.624 45.552C33.344 46.8 33.776 48.144 33.92 49.584C33.152 52.08 31.52 53.328 29.024 53.328C27.632 53.328 26.408 52.824 25.352 51.816C24.296 50.808 23.696 49.032 23.552 46.488L23.048 42.888C22.808 42.84 22.568 42.816 22.328 42.816C22.136 42.816 21.92 42.816 21.68 42.816ZM193.144 75.144H187.672L174.712 44.112L171.183 43.392V40.224H191.632V43.392L187.096 44.256L193.864 62.688L200.128 44.256L195.592 43.392V40.224H209.2V43.392L205.024 44.184L193.144 75.144ZM221.392 33.744C219.712 33.744 218.272 33.216 217.072 32.16C215.872 31.104 215.272 29.736 215.272 28.056C215.272 26.376 215.872 25.008 217.072 23.952C218.272 22.848 219.712 22.296 221.392 22.296C223.072 22.296 224.512 22.848 225.712 23.952C226.912 25.008 227.512 26.376 227.512 28.056C227.512 29.736 226.912 31.104 225.712 32.16C224.512 33.216 223.072 33.744 221.392 33.744ZM230.896 75H211.816V71.616L215.704 70.752C215.752 69.024 215.776 67.176 215.776 65.208C215.776 63.192 215.776 61.416 215.776 59.88V56.424C215.776 54.456 215.752 52.824 215.704 51.528C215.656 50.184 215.608 48.792 215.56 47.352L211.096 46.704V43.896L226.216 39.072L227.44 39.864L227.224 50.304V59.88C227.224 61.416 227.224 63.192 227.224 65.208C227.224 67.224 227.248 69.12 227.296 70.896L230.896 71.616V75ZM246.694 57.792C246.694 61.776 247.39 64.776 248.782 66.792C250.174 68.808 251.974 69.816 254.182 69.816C255.814 69.816 257.302 69.264 258.646 68.16V46.704C257.35 45.696 255.934 45.192 254.398 45.192C252.19 45.192 250.342 46.224 248.854 48.288C247.414 50.304 246.694 53.472 246.694 57.792ZM259.582 75.792L259.006 71.616C256.222 74.592 252.838 76.08 248.854 76.08C246.838 76.08 244.942 75.696 243.166 74.928C241.438 74.112 239.926 72.936 238.63 71.4C237.334 69.864 236.326 67.968 235.606 65.712C234.886 63.456 234.526 60.864 234.526 57.936C234.526 55.008 234.958 52.392 235.822 50.088C236.734 47.736 237.91 45.744 239.35 44.112C240.838 42.48 242.542 41.232 244.462 40.368C246.382 39.504 248.35 39.072 250.366 39.072C252.334 39.072 253.99 39.408 255.334 40.08C256.726 40.752 257.974 41.712 259.078 42.96V29.712L254.038 28.992V25.968L269.23 22.728L270.382 23.448L270.094 33.528V70.824L273.622 71.616V75L259.582 75.792ZM278.068 59.952V53.472H296.716V59.952H278.068ZM302.106 41.016L319.89 36.84L321.114 37.632L320.826 47.784V59.736C320.826 61.464 320.826 63.216 320.826 64.992C320.826 66.72 320.85 68.448 320.898 70.176L327.234 71.616V75H302.25V71.616L309.09 70.104C309.138 68.376 309.162 66.648 309.162 64.92C309.162 63.192 309.162 61.464 309.162 59.736V44.544L302.106 45.192V41.016ZM333.918 84.504L333.198 80.832C335.886 79.92 338.238 78.912 340.254 77.808C342.318 76.704 344.07 75.456 345.51 74.064C346.998 72.672 348.198 71.088 349.11 69.312C350.07 67.536 350.766 65.52 351.198 63.264C348.942 64.848 346.206 65.64 342.99 65.64C340.926 65.64 339.006 65.352 337.23 64.776C335.502 64.152 333.99 63.264 332.694 62.112C331.446 60.912 330.462 59.472 329.742 57.792C329.022 56.064 328.662 54.072 328.662 51.816C328.662 49.32 329.118 47.112 330.03 45.192C330.942 43.272 332.19 41.688 333.774 40.44C335.358 39.144 337.182 38.184 339.246 37.56C341.31 36.888 343.494 36.552 345.798 36.552C351.558 36.552 355.95 38.256 358.974 41.664C361.998 45.072 363.51 49.848 363.51 55.992C363.51 59.688 362.814 63.12 361.422 66.288C360.03 69.456 358.038 72.264 355.446 74.712C352.854 77.16 349.734 79.224 346.086 80.904C342.438 82.584 338.382 83.784 333.918 84.504ZM340.038 50.88C340.038 54.192 340.662 56.712 341.91 58.44C343.206 60.12 344.934 60.96 347.094 60.96C348.054 60.96 348.894 60.864 349.614 60.672C350.334 60.48 351.03 60.144 351.702 59.664C351.846 58.224 351.918 56.664 351.918 54.984C351.918 52.104 351.774 49.728 351.486 47.856C351.198 45.984 350.79 44.496 350.262 43.392C349.734 42.24 349.11 41.448 348.39 41.016C347.67 40.536 346.854 40.296 345.942 40.296C344.358 40.296 342.966 41.136 341.766 42.816C340.614 44.448 340.038 47.136 340.038 50.88Z" fill="#1F1F1F"/>
<path d="M56.2901 76.08C53.4581 76.08 50.9141 75.624 48.6581 74.712C46.4021 73.8 44.4821 72.528 42.8981 70.896C41.3141 69.264 40.0901 67.32 39.2261 65.064C38.4101 62.76 38.0021 60.216 38.0021 57.432C38.0021 54.696 38.4581 52.2 39.3701 49.944C40.3301 47.688 41.6261 45.768 43.2581 44.184C44.9381 42.552 46.8821 41.304 49.0901 40.44C51.2981 39.528 53.6981 39.072 56.2901 39.072C58.8341 39.072 61.2101 39.504 63.4181 40.368C65.6741 41.232 67.6181 42.456 69.2501 44.04C70.9301 45.624 72.2261 47.568 73.1381 49.872C74.0981 52.128 74.5781 54.648 74.5781 57.432C74.5781 60.264 74.1461 62.832 73.2821 65.136C72.4181 67.392 71.1941 69.336 69.6101 70.968C68.0261 72.6 66.1061 73.872 63.8501 74.784C61.5941 75.648 59.0741 76.08 56.2901 76.08ZM56.2901 72.336C58.3061 72.336 59.8181 71.184 60.8261 68.88C61.8341 66.528 62.3381 62.784 62.3381 57.648C62.3381 52.512 61.8341 48.768 60.8261 46.416C59.8181 44.064 58.3061 42.888 56.2901 42.888C54.2261 42.888 52.6901 44.064 51.6821 46.416C50.6741 48.768 50.1701 52.512 50.1701 57.648C50.1701 62.784 50.6741 66.528 51.6821 68.88C52.6901 71.184 54.2261 72.336 56.2901 72.336ZM112.061 75.144C109.853 69.384 108.101 64.68 106.805 61.032C105.509 57.384 104.501 54.36 103.781 51.96L95.5728 75.144H90.1728L78.7968 43.896L75.6288 43.392V40.224H94.5648V43.392L90.3888 43.968L96.0768 62.4L102.341 44.04L98.0928 43.392V40.224H115.733V43.392L111.773 44.04L117.677 62.04L123.509 44.04L119.405 43.392V40.224H132.509V43.392L128.477 44.04L117.461 75.144H112.061ZM151.353 76.08C148.521 76.08 145.977 75.624 143.721 74.712C141.465 73.8 139.545 72.528 137.961 70.896C136.377 69.264 135.153 67.32 134.289 65.064C133.473 62.76 133.065 60.216 133.065 57.432C133.065 54.696 133.521 52.2 134.433 49.944C135.393 47.688 136.689 45.768 138.321 44.184C140.001 42.552 141.945 41.304 144.153 40.44C146.361 39.528 148.761 39.072 151.353 39.072C153.897 39.072 156.273 39.504 158.481 40.368C160.737 41.232 162.681 42.456 164.313 44.04C165.993 45.624 167.289 47.568 168.201 49.872C169.161 52.128 169.641 54.648 169.641 57.432C169.641 60.264 169.209 62.832 168.345 65.136C167.481 67.392 166.257 69.336 164.673 70.968C163.089 72.6 161.169 73.872 158.913 74.784C156.657 75.648 154.137 76.08 151.353 76.08ZM151.353 72.336C153.369 72.336 154.881 71.184 155.889 68.88C156.897 66.528 157.401 62.784 157.401 57.648C157.401 52.512 156.897 48.768 155.889 46.416C154.881 44.064 153.369 42.888 151.353 42.888C149.289 42.888 147.753 44.064 146.745 46.416C145.737 48.768 145.233 52.512 145.233 57.648C145.233 62.784 145.737 66.528 146.745 68.88C147.753 71.184 149.289 72.336 151.353 72.336Z" fill="#414141"/>
</g>
<defs>
<clipPath id="clip0">
<rect width="366" height="99" fill="white"/>
</clipPath>
</defs>
</svg>
