<svg width="340" height="99" viewBox="0 0 340 99" fill="none" xmlns="http://www.w3.org/2000/svg">
<g clip-path="url(#clip0)">
<rect width="340" height="99" fill="white"/>
<path d="M21.68 42.816C20.672 42.816 19.64 43.08 18.584 43.608C17.576 44.088 16.64 44.88 15.776 45.984C14.96 47.04 14.288 48.432 13.76 50.16C13.28 51.84 13.04 53.904 13.04 56.352C13.04 60.528 13.952 63.72 15.776 65.928C17.648 68.136 20.096 69.24 23.12 69.24C24.848 69.24 26.36 68.88 27.656 68.16C28.952 67.392 30.128 66.408 31.184 65.208L33.704 67.44C32.312 70.368 30.368 72.552 27.872 73.992C25.376 75.384 22.4 76.08 18.944 76.08C16.496 76.08 14.168 75.696 11.96 74.928C9.8 74.16 7.904 73.008 6.272 71.472C4.688 69.888 3.416 67.968 2.456 65.712C1.496 63.408 1.016 60.744 1.016 57.72C1.016 54.792 1.52 52.176 2.528 49.872C3.536 47.52 4.928 45.552 6.704 43.968C8.48 42.384 10.544 41.184 12.896 40.368C15.248 39.504 17.768 39.072 20.456 39.072C22.376 39.072 24.128 39.36 25.712 39.936C27.296 40.464 28.664 41.208 29.816 42.168C31.016 43.128 31.952 44.256 32.624 45.552C33.344 46.8 33.776 48.144 33.92 49.584C33.152 52.08 31.52 53.328 29.024 53.328C27.632 53.328 26.408 52.824 25.352 51.816C24.296 50.808 23.696 49.032 23.552 46.488L23.048 42.888C22.808 42.84 22.568 42.816 22.328 42.816C22.136 42.816 21.92 42.816 21.68 42.816ZM55.7979 76.08C52.9659 76.08 50.4219 75.624 48.1659 74.712C45.9099 73.8 43.9899 72.528 42.4059 70.896C40.8219 69.264 39.5979 67.32 38.7339 65.064C37.9179 62.76 37.5099 60.216 37.5099 57.432C37.5099 54.696 37.9659 52.2 38.8779 49.944C39.8379 47.688 41.1339 45.768 42.7659 44.184C44.4459 42.552 46.3899 41.304 48.5979 40.44C50.8059 39.528 53.2059 39.072 55.7979 39.072C58.3419 39.072 60.7179 39.504 62.9259 40.368C65.1819 41.232 67.1259 42.456 68.7579 44.04C70.4379 45.624 71.7339 47.568 72.6459 49.872C73.6059 52.128 74.0859 54.648 74.0859 57.432C74.0859 60.264 73.6539 62.832 72.7899 65.136C71.9259 67.392 70.7019 69.336 69.1179 70.968C67.5339 72.6 65.6139 73.872 63.3579 74.784C61.1019 75.648 58.5819 76.08 55.7979 76.08ZM55.7979 72.336C57.8139 72.336 59.3259 71.184 60.3339 68.88C61.3419 66.528 61.8459 62.784 61.8459 57.648C61.8459 52.512 61.3419 48.768 60.3339 46.416C59.3259 44.064 57.8139 42.888 55.7979 42.888C53.7339 42.888 52.1979 44.064 51.1899 46.416C50.1819 48.768 49.6779 52.512 49.6779 57.648C49.6779 62.784 50.1819 66.528 51.1899 68.88C52.1979 71.184 53.7339 72.336 55.7979 72.336ZM111.569 75.144C109.361 69.384 107.609 64.68 106.313 61.032C105.017 57.384 104.009 54.36 103.289 51.96L95.0806 75.144H89.6806L78.3046 43.896L75.1366 43.392V40.224H94.0726V43.392L89.8966 43.968L95.5846 62.4L101.849 44.04L97.6006 43.392V40.224H115.241V43.392L111.281 44.04L117.185 62.04L123.017 44.04L118.913 43.392V40.224H132.017V43.392L127.985 44.04L116.969 75.144H111.569ZM150.86 76.08C148.028 76.08 145.484 75.624 143.228 74.712C140.972 73.8 139.052 72.528 137.468 70.896C135.884 69.264 134.66 67.32 133.796 65.064C132.98 62.76 132.572 60.216 132.572 57.432C132.572 54.696 133.028 52.2 133.94 49.944C134.9 47.688 136.196 45.768 137.828 44.184C139.508 42.552 141.452 41.304 143.66 40.44C145.868 39.528 148.268 39.072 150.86 39.072C153.404 39.072 155.78 39.504 157.988 40.368C160.244 41.232 162.188 42.456 163.82 44.04C165.5 45.624 166.796 47.568 167.708 49.872C168.668 52.128 169.148 54.648 169.148 57.432C169.148 60.264 168.716 62.832 167.852 65.136C166.988 67.392 165.764 69.336 164.18 70.968C162.596 72.6 160.676 73.872 158.42 74.784C156.164 75.648 153.644 76.08 150.86 76.08ZM150.86 72.336C152.876 72.336 154.388 71.184 155.396 68.88C156.404 66.528 156.908 62.784 156.908 57.648C156.908 52.512 156.404 48.768 155.396 46.416C154.388 44.064 152.876 42.888 150.86 42.888C148.796 42.888 147.26 44.064 146.252 46.416C145.244 48.768 144.74 52.512 144.74 57.648C144.74 62.784 145.244 66.528 146.252 68.88C147.26 71.184 148.796 72.336 150.86 72.336ZM192.159 75.144H186.687L173.727 44.112L170.199 43.392V40.224H190.647V43.392L186.111 44.256L192.879 62.688L199.143 44.256L194.607 43.392V40.224H208.215V43.392L204.039 44.184L192.159 75.144ZM220.408 33.744C218.728 33.744 217.288 33.216 216.088 32.16C214.888 31.104 214.288 29.736 214.288 28.056C214.288 26.376 214.888 25.008 216.088 23.952C217.288 22.848 218.728 22.296 220.408 22.296C222.088 22.296 223.528 22.848 224.728 23.952C225.928 25.008 226.528 26.376 226.528 28.056C226.528 29.736 225.928 31.104 224.728 32.16C223.528 33.216 222.088 33.744 220.408 33.744ZM229.912 75H210.832V71.616L214.72 70.752C214.768 69.024 214.792 67.176 214.792 65.208C214.792 63.192 214.792 61.416 214.792 59.88V56.424C214.792 54.456 214.768 52.824 214.72 51.528C214.672 50.184 214.624 48.792 214.576 47.352L210.112 46.704V43.896L225.232 39.072L226.456 39.864L226.24 50.304V59.88C226.24 61.416 226.24 63.192 226.24 65.208C226.24 67.224 226.264 69.12 226.312 70.896L229.912 71.616V75ZM245.709 57.792C245.709 61.776 246.405 64.776 247.797 66.792C249.189 68.808 250.989 69.816 253.197 69.816C254.829 69.816 256.317 69.264 257.661 68.16V46.704C256.365 45.696 254.949 45.192 253.413 45.192C251.205 45.192 249.357 46.224 247.869 48.288C246.429 50.304 245.709 53.472 245.709 57.792ZM258.597 75.792L258.021 71.616C255.237 74.592 251.853 76.08 247.869 76.08C245.853 76.08 243.957 75.696 242.181 74.928C240.453 74.112 238.941 72.936 237.645 71.4C236.349 69.864 235.341 67.968 234.621 65.712C233.901 63.456 233.541 60.864 233.541 57.936C233.541 55.008 233.973 52.392 234.837 50.088C235.749 47.736 236.925 45.744 238.365 44.112C239.853 42.48 241.557 41.232 243.477 40.368C245.397 39.504 247.365 39.072 249.381 39.072C251.349 39.072 253.005 39.408 254.349 40.08C255.741 40.752 256.989 41.712 258.093 42.96V29.712L253.053 28.992V25.968L268.245 22.728L269.397 23.448L269.109 33.528V70.824L272.637 71.616V75L258.597 75.792ZM276.723 41.016L294.507 36.84L295.731 37.632L295.443 47.784V59.736C295.443 61.464 295.443 63.216 295.443 64.992C295.443 66.72 295.467 68.448 295.515 70.176L301.851 71.616V75H276.867V71.616L283.707 70.104C283.755 68.376 283.779 66.648 283.779 64.92C283.779 63.192 283.779 61.464 283.779 59.736V44.544L276.723 45.192V41.016ZM308.535 84.504L307.815 80.832C310.503 79.92 312.855 78.912 314.871 77.808C316.935 76.704 318.687 75.456 320.127 74.064C321.615 72.672 322.815 71.088 323.727 69.312C324.687 67.536 325.383 65.52 325.815 63.264C323.559 64.848 320.823 65.64 317.607 65.64C315.543 65.64 313.623 65.352 311.847 64.776C310.119 64.152 308.607 63.264 307.311 62.112C306.063 60.912 305.079 59.472 304.359 57.792C303.639 56.064 303.279 54.072 303.279 51.816C303.279 49.32 303.735 47.112 304.647 45.192C305.559 43.272 306.807 41.688 308.391 40.44C309.975 39.144 311.799 38.184 313.863 37.56C315.927 36.888 318.111 36.552 320.415 36.552C326.175 36.552 330.567 38.256 333.591 41.664C336.615 45.072 338.127 49.848 338.127 55.992C338.127 59.688 337.431 63.12 336.039 66.288C334.647 69.456 332.655 72.264 330.063 74.712C327.471 77.16 324.351 79.224 320.703 80.904C317.055 82.584 312.999 83.784 308.535 84.504ZM314.655 50.88C314.655 54.192 315.279 56.712 316.527 58.44C317.823 60.12 319.551 60.96 321.711 60.96C322.671 60.96 323.511 60.864 324.231 60.672C324.951 60.48 325.647 60.144 326.319 59.664C326.463 58.224 326.535 56.664 326.535 54.984C326.535 52.104 326.391 49.728 326.103 47.856C325.815 45.984 325.407 44.496 324.879 43.392C324.351 42.24 323.727 41.448 323.007 41.016C322.287 40.536 321.471 40.296 320.559 40.296C318.975 40.296 317.583 41.136 316.383 42.816C315.231 44.448 314.655 47.136 314.655 50.88Z" fill="black"/>
</g>
<defs>
<clipPath id="clip0">
<rect width="340" height="99" fill="white"/>
</clipPath>
</defs>
</svg>
